<mxfile host="app.diagrams.net" modified="2023-07-24T19:12:13.948Z" agent="Mozilla/5.0 (Windows NT 10.0; Win64; x64) AppleWebKit/537.36 (KHTML, like Gecko) Chrome/115.0.0.0 Safari/537.36" etag="PxpDzSyryZhbk2tNRoKp" version="21.6.5" type="device">
  <diagram name="Página-1" id="hEFRZM-GBY3Ax9LAFTAj">
    <mxGraphModel dx="1050" dy="542" grid="1" gridSize="10" guides="1" tooltips="1" connect="1" arrows="1" fold="1" page="1" pageScale="1" pageWidth="827" pageHeight="1169" math="0" shadow="0">
      <root>
        <mxCell id="0" />
        <mxCell id="1" parent="0" />
        <mxCell id="uSbjaHPtd3ndr8N-rQvV-1" value="Construa o Modelo Entidade Relacionamento considerando o seguinte cenário:&#xa;&#xa;&#xa;- uma empresa possui vários veículos&#xa;- um veículo possui marca(gm, ford, fiat), modelo(onix, fiesta, argo) e placa&#xa;- um cliente (cpf, nome) aluga um ou mais veículos" style="text;whiteSpace=wrap;" vertex="1" parent="1">
          <mxGeometry x="10" y="20" width="460" height="110" as="geometry" />
        </mxCell>
        <mxCell id="uSbjaHPtd3ndr8N-rQvV-4" style="edgeStyle=orthogonalEdgeStyle;rounded=0;orthogonalLoop=1;jettySize=auto;html=1;entryX=0;entryY=0.5;entryDx=0;entryDy=0;endArrow=none;endFill=0;" edge="1" parent="1" source="uSbjaHPtd3ndr8N-rQvV-5" target="uSbjaHPtd3ndr8N-rQvV-3">
          <mxGeometry relative="1" as="geometry" />
        </mxCell>
        <mxCell id="uSbjaHPtd3ndr8N-rQvV-2" value="Empresa" style="rounded=0;whiteSpace=wrap;html=1;" vertex="1" parent="1">
          <mxGeometry x="40" y="150" width="120" height="60" as="geometry" />
        </mxCell>
        <mxCell id="uSbjaHPtd3ndr8N-rQvV-12" style="edgeStyle=orthogonalEdgeStyle;rounded=0;orthogonalLoop=1;jettySize=auto;html=1;entryX=0;entryY=0.5;entryDx=0;entryDy=0;" edge="1" parent="1" source="uSbjaHPtd3ndr8N-rQvV-3" target="uSbjaHPtd3ndr8N-rQvV-9">
          <mxGeometry relative="1" as="geometry" />
        </mxCell>
        <mxCell id="uSbjaHPtd3ndr8N-rQvV-13" style="edgeStyle=orthogonalEdgeStyle;rounded=0;orthogonalLoop=1;jettySize=auto;html=1;entryX=0;entryY=0.5;entryDx=0;entryDy=0;" edge="1" parent="1" source="uSbjaHPtd3ndr8N-rQvV-3" target="uSbjaHPtd3ndr8N-rQvV-10">
          <mxGeometry relative="1" as="geometry" />
        </mxCell>
        <mxCell id="uSbjaHPtd3ndr8N-rQvV-14" style="edgeStyle=orthogonalEdgeStyle;rounded=0;orthogonalLoop=1;jettySize=auto;html=1;entryX=0;entryY=0.5;entryDx=0;entryDy=0;" edge="1" parent="1" source="uSbjaHPtd3ndr8N-rQvV-3" target="uSbjaHPtd3ndr8N-rQvV-11">
          <mxGeometry relative="1" as="geometry">
            <mxPoint x="550" y="270" as="targetPoint" />
          </mxGeometry>
        </mxCell>
        <mxCell id="uSbjaHPtd3ndr8N-rQvV-3" value="Veiculos" style="rounded=0;whiteSpace=wrap;html=1;" vertex="1" parent="1">
          <mxGeometry x="390" y="150" width="120" height="60" as="geometry" />
        </mxCell>
        <mxCell id="uSbjaHPtd3ndr8N-rQvV-6" value="" style="edgeStyle=orthogonalEdgeStyle;rounded=0;orthogonalLoop=1;jettySize=auto;html=1;entryX=0;entryY=0.5;entryDx=0;entryDy=0;endArrow=none;endFill=0;" edge="1" parent="1" source="uSbjaHPtd3ndr8N-rQvV-2" target="uSbjaHPtd3ndr8N-rQvV-5">
          <mxGeometry relative="1" as="geometry">
            <mxPoint x="160" y="180" as="sourcePoint" />
            <mxPoint x="390" y="180" as="targetPoint" />
          </mxGeometry>
        </mxCell>
        <mxCell id="uSbjaHPtd3ndr8N-rQvV-5" value="possui" style="rhombus;whiteSpace=wrap;html=1;" vertex="1" parent="1">
          <mxGeometry x="230" y="140" width="80" height="80" as="geometry" />
        </mxCell>
        <mxCell id="uSbjaHPtd3ndr8N-rQvV-7" value="1" style="text;html=1;strokeColor=none;fillColor=none;align=center;verticalAlign=middle;whiteSpace=wrap;rounded=0;" vertex="1" parent="1">
          <mxGeometry x="140" y="150" width="60" height="30" as="geometry" />
        </mxCell>
        <mxCell id="uSbjaHPtd3ndr8N-rQvV-8" value="n" style="text;html=1;strokeColor=none;fillColor=none;align=center;verticalAlign=middle;whiteSpace=wrap;rounded=0;" vertex="1" parent="1">
          <mxGeometry x="350" y="150" width="60" height="30" as="geometry" />
        </mxCell>
        <mxCell id="uSbjaHPtd3ndr8N-rQvV-9" value="marca" style="ellipse;whiteSpace=wrap;html=1;" vertex="1" parent="1">
          <mxGeometry x="600" y="10" width="120" height="80" as="geometry" />
        </mxCell>
        <mxCell id="uSbjaHPtd3ndr8N-rQvV-10" value="placa" style="ellipse;whiteSpace=wrap;html=1;" vertex="1" parent="1">
          <mxGeometry x="600" y="100" width="120" height="80" as="geometry" />
        </mxCell>
        <mxCell id="uSbjaHPtd3ndr8N-rQvV-11" value="modelo" style="ellipse;whiteSpace=wrap;html=1;" vertex="1" parent="1">
          <mxGeometry x="600" y="190" width="120" height="80" as="geometry" />
        </mxCell>
        <mxCell id="uSbjaHPtd3ndr8N-rQvV-15" value="GM&lt;br&gt;FORD&lt;br&gt;FIAT" style="text;html=1;strokeColor=none;fillColor=none;align=center;verticalAlign=middle;whiteSpace=wrap;rounded=0;" vertex="1" parent="1">
          <mxGeometry x="720" y="35" width="60" height="30" as="geometry" />
        </mxCell>
        <mxCell id="uSbjaHPtd3ndr8N-rQvV-17" value="ONIX&lt;br&gt;FIESTA&lt;br&gt;ARGO" style="text;html=1;strokeColor=none;fillColor=none;align=center;verticalAlign=middle;whiteSpace=wrap;rounded=0;" vertex="1" parent="1">
          <mxGeometry x="730" y="215" width="60" height="30" as="geometry" />
        </mxCell>
        <mxCell id="uSbjaHPtd3ndr8N-rQvV-24" style="edgeStyle=orthogonalEdgeStyle;rounded=0;orthogonalLoop=1;jettySize=auto;html=1;entryX=0.5;entryY=1;entryDx=0;entryDy=0;endArrow=none;endFill=0;" edge="1" parent="1" source="uSbjaHPtd3ndr8N-rQvV-25" target="uSbjaHPtd3ndr8N-rQvV-3">
          <mxGeometry relative="1" as="geometry">
            <Array as="points">
              <mxPoint x="450" y="220" />
              <mxPoint x="450" y="220" />
            </Array>
          </mxGeometry>
        </mxCell>
        <mxCell id="uSbjaHPtd3ndr8N-rQvV-33" style="edgeStyle=orthogonalEdgeStyle;rounded=0;orthogonalLoop=1;jettySize=auto;html=1;entryX=0;entryY=0.5;entryDx=0;entryDy=0;endArrow=none;endFill=0;" edge="1" parent="1" source="uSbjaHPtd3ndr8N-rQvV-18" target="uSbjaHPtd3ndr8N-rQvV-32">
          <mxGeometry relative="1" as="geometry" />
        </mxCell>
        <mxCell id="uSbjaHPtd3ndr8N-rQvV-34" style="edgeStyle=orthogonalEdgeStyle;rounded=0;orthogonalLoop=1;jettySize=auto;html=1;exitX=0.5;exitY=1;exitDx=0;exitDy=0;entryX=1;entryY=0.5;entryDx=0;entryDy=0;endArrow=none;endFill=0;" edge="1" parent="1" source="uSbjaHPtd3ndr8N-rQvV-18" target="uSbjaHPtd3ndr8N-rQvV-31">
          <mxGeometry relative="1" as="geometry">
            <Array as="points">
              <mxPoint x="170" y="380" />
            </Array>
          </mxGeometry>
        </mxCell>
        <mxCell id="uSbjaHPtd3ndr8N-rQvV-18" value="Cliente" style="rounded=0;whiteSpace=wrap;html=1;" vertex="1" parent="1">
          <mxGeometry x="110" y="250" width="120" height="60" as="geometry" />
        </mxCell>
        <mxCell id="uSbjaHPtd3ndr8N-rQvV-26" value="" style="edgeStyle=orthogonalEdgeStyle;rounded=0;orthogonalLoop=1;jettySize=auto;html=1;endArrow=none;endFill=0;entryX=0;entryY=0.5;entryDx=0;entryDy=0;" edge="1" parent="1" source="uSbjaHPtd3ndr8N-rQvV-18" target="uSbjaHPtd3ndr8N-rQvV-25">
          <mxGeometry relative="1" as="geometry">
            <mxPoint x="370" y="310" as="sourcePoint" />
            <mxPoint x="440" y="310" as="targetPoint" />
            <Array as="points">
              <mxPoint x="450" y="280" />
            </Array>
          </mxGeometry>
        </mxCell>
        <mxCell id="uSbjaHPtd3ndr8N-rQvV-25" value="aluga" style="rhombus;whiteSpace=wrap;html=1;" vertex="1" parent="1">
          <mxGeometry x="410" y="240" width="80" height="80" as="geometry" />
        </mxCell>
        <mxCell id="uSbjaHPtd3ndr8N-rQvV-27" value="1" style="text;html=1;strokeColor=none;fillColor=none;align=center;verticalAlign=middle;whiteSpace=wrap;rounded=0;" vertex="1" parent="1">
          <mxGeometry x="210" y="250" width="60" height="30" as="geometry" />
        </mxCell>
        <mxCell id="uSbjaHPtd3ndr8N-rQvV-30" value="n" style="text;html=1;strokeColor=none;fillColor=none;align=center;verticalAlign=middle;whiteSpace=wrap;rounded=0;" vertex="1" parent="1">
          <mxGeometry x="400" y="210" width="60" height="30" as="geometry" />
        </mxCell>
        <mxCell id="uSbjaHPtd3ndr8N-rQvV-31" value="CPF" style="ellipse;whiteSpace=wrap;html=1;" vertex="1" parent="1">
          <mxGeometry x="10" y="340" width="120" height="80" as="geometry" />
        </mxCell>
        <mxCell id="uSbjaHPtd3ndr8N-rQvV-32" value="Nome" style="ellipse;whiteSpace=wrap;html=1;" vertex="1" parent="1">
          <mxGeometry x="200" y="340" width="120" height="80" as="geometry" />
        </mxCell>
      </root>
    </mxGraphModel>
  </diagram>
</mxfile>
